<?xml version="1.0" encoding="utf-8"?>
<!-- Generator: Adobe Illustrator 27.9.0, SVG Export Plug-In . SVG Version: 6.00 Build 0)  -->
<svg version="1.1" id="Layer_1" xmlns="http://www.w3.org/2000/svg" xmlns:xlink="http://www.w3.org/1999/xlink" x="0px" y="0px"
	 viewBox="0 0 2000 2000" style="enable-background:new 0 0 2000 2000;" xml:space="preserve">
<style type="text/css">
	.st0{fill:none;}
	.st1{display:none;fill:url(#SVGID_1_);}
	.st2{fill:#1065FF;}
</style>
<pattern  y="2000" width="192" height="160" patternUnits="userSpaceOnUse" id="SVGID_0000006651174405471960363" viewBox="4 -164.3 192 160" style="overflow:visible;">
	<g>
		<rect x="4" y="-164.3" class="st0" width="192" height="160"/>
		<g>
			<rect x="4" y="-164.3" class="st0" width="192" height="160"/>
			<g>
				<rect x="4" y="-164.3" class="st0" width="192" height="160"/>
				<g>
					<path d="M302.3-11.1l-83.4-83.4L192-67.7l56.6,56.6C263.4,3.7,287.5,3.7,302.3-11.1L302.3-11.1z"/>
				</g>
				<g>
					<path d="M110.3-11.1L26.8-94.6L0-67.7l56.6,56.6C71.4,3.7,95.5,3.7,110.3-11.1L110.3-11.1z"/>
					<path d="M153.5-54.3L70-137.7l-26.8,26.8l56.6,56.6C114.6-39.5,138.6-39.5,153.5-54.3L153.5-54.3z"/>
					<path d="M183.2-117.8L183.2-117.8c-9.3-9.3-24.4-9.3-33.7,0l0,0c-9.3,9.3-9.3,24.4,0,33.7l0,0c9.3,9.3,24.4,9.3,33.7,0l0,0
						C192.5-93.4,192.5-108.5,183.2-117.8z"/>
				</g>
				<g>
					<path d="M302.3-171.1l-83.4-83.4L192-227.7l56.6,56.6C263.4-156.3,287.5-156.3,302.3-171.1L302.3-171.1z"/>
				</g>
				<g>
					<path d="M110.3-171.1l-83.4-83.4L0-227.7l56.6,56.6C71.4-156.3,95.5-156.3,110.3-171.1L110.3-171.1z"/>
				</g>
			</g>
		</g>
	</g>
</pattern>
<pattern  id="SVGID_1_" xlink:href="#SVGID_0000006651174405471960363" patternTransform="matrix(0.9087 0 0 0.9087 -2130.2173 14522.4902)">
</pattern>
<rect x="-353" y="-35.9" class="st1" width="2706" height="2071.8"/>
<g>
	<g>
		<g>
			<g>
				<path d="M617.8,1021h-50V791.2h50V1021z M747.6,835.9H581.9v-44.7h165.7L747.6,835.9L747.6,835.9z M742.5,937.7H581.9V893h160.6
					V937.7L742.5,937.7z"/>
				<path d="M881.4,1021c-24.4,0-45.7-4.7-63.7-14.1c-18.1-9.4-32-22.8-41.6-39.9c-9.7-17.3-14.5-37.4-14.5-60.8
					c0-23.4,4.8-43.6,14.5-60.8c9.7-17.3,23.5-30.5,41.6-39.9s39.3-14.1,63.7-14.1c25.3,0,46.9,4.7,64.9,14.1
					c18,9.4,31.9,22.8,41.6,39.9c9.8,17.3,14.6,37.4,14.6,60.8c0,23.4-4.8,43.6-14.6,60.8c-9.8,17.3-23.7,30.5-41.6,39.9
					C928.4,1016.3,906.8,1021,881.4,1021z M881.4,973.1c16.4,0,29.6-2.2,39.5-6.5s17.1-11.3,21.6-21.1c4.6-9.8,6.9-22.8,6.9-39.3
					c0-16.7-2.3-29.8-6.9-39.5c-4.6-9.7-11.8-16.7-21.6-21c-9.9-4.3-23.1-6.5-39.5-6.5c-16.2,0-29.2,2.2-39,6.5s-16.9,11.3-21.4,21
					s-6.6,22.8-6.6,39.5c0,16.4,2.2,29.6,6.6,39.3c4.5,9.8,11.6,16.8,21.4,21.1C852.2,970.9,865.2,973.1,881.4,973.1z"/>
				<path d="M1077,1021h-50V791.7h123.2c18.5,0,34,2.7,46.9,8.1c12.9,5.3,22.7,13.2,29.3,23.4c6.6,10.3,10,22.7,10,37.3
					c0,12.6-2.3,23.3-7,32.2s-11.7,16.1-21,21.4c-9.3,5.3-21,8.7-35,10.1v2.8c10,2.8,17.4,6.9,22.3,12.3c4.8,5.4,9.4,12.2,13.6,20.2
					l32.3,61.7H1184l-30.7-59.6c-3.1-5.9-6.3-10.6-9.7-14c-3.4-3.4-7.6-5.9-12.8-7.4c-5.2-1.4-12.2-2.2-20.8-2.2h-33V1021z
					 M1077,837.9v61.3h72.9c11.7,0,20.4-2.1,25.9-6.3c5.6-4.2,8.3-12.4,8.3-24.5c0-11.5-2.8-19.3-8.3-23.8
					c-5.6-4.5-14.2-6.6-25.9-6.6H1077V837.9z"/>
				<path d="M1313.1,1021h-50V791.7h67.6l52.3,113l21,53.7h3.6l20.3-53.7l50.6-113h67.9v229.4h-50V904.8l1.7-36h-3.6l-13,36
					l-46.6,102.7h-60.6l-46.6-102.7l-13-36h-3.6l2.1,36L1313.1,1021L1313.1,1021z"/>
				<path d="M1616.5,1021h-56l97.6-229.8h71.3l98.2,229.8h-57.3L1709,873.9l-13.6-35.7h-3.6l-13.6,35.7L1616.5,1021z M1771.1,970.3
					H1614V924h157.1V970.3z"/>
			</g>
			<g>
				<path d="M253.1,791.7c63.6,0,127.1,0,190.8,0c0,29.1,0,58.3,0,87.4c-0.7,0-1.6,0-2.3,0c-88.9,0-177.9,0-266.8,0
					c-0.7,0-1.6,0-2.3,0c0-1.7,0-3.4,0-5.1c0.1-0.4,0.2-0.6,0.2-1c0.7-4.7,1.1-9.5,2.2-14.2c7.2-33.3,36-60.3,69.6-65.9
					C247.3,792.6,250.2,792.2,253.1,791.7z"/>
				<path d="M443.9,1019.4c-0.7,0-1.4,0-2.2,0c-88.9,0-178,0-266.9,0c-0.7,0-1.6,0-2.3,0c0-1.6,0-3.1,0-4.7c0.2-1.7,0.5-3.3,0.6-4.9
					c2.4-21.2,11.3-39.2,26.9-53.8c16.9-15.8,37-23.8,60.2-23.8c60.5,0,120.8,0,181.3,0c0.8,0,1.7-0.1,2.5-0.1
					C443.9,961.2,443.9,990.3,443.9,1019.4z"/>
				<path class="st2" d="M172.4,1112.4c0.5-3,1-6,1.6-8.9c5.2-22.2,23.8-38.7,46.3-41.6c27.8-3.5,53.7,14.2,60.3,41.4
					c7.6,31-12.8,61.9-44.3,67.2c-2.4,0.4-4.9,0.6-7.4,1c-1.1,0-2.2,0-3.4,0c-1.7-0.2-3.3-0.4-4.9-0.6c-23.3-2.8-42.2-20-47.1-43
					c-0.5-2.5-0.8-5.1-1.3-7.7C172.4,1117.6,172.4,1115.1,172.4,1112.4z"/>
			</g>
		</g>
	</g>
	<g>
		<path d="M577.1,1177.3h-9.3v-87.5h42.8c6.1,0,11.4,1,16.1,3c4.6,2,8.2,4.9,10.8,8.6s3.9,8.3,3.9,13.7c0,5-1.1,9.2-3.4,12.8
			c-2.3,3.6-5.4,6.3-9.4,8.3s-8.7,3-14.2,3.2v0.7c2.9,0.8,5.2,2.1,7.1,3.9s3.5,4,5,6.5l16.5,26.8h-10.7l-15.5-25.3
			c-1.5-2.4-3.1-4.4-4.8-5.9s-3.8-2.7-6.3-3.4c-2.5-0.7-5.7-1.1-9.6-1.1h-18.8v35.7H577.1z M577.1,1098.3v35.8h33.4
			c6.9,0,12.1-1.4,15.7-4.2c3.6-2.8,5.4-7.4,5.4-13.6s-1.8-10.7-5.4-13.6c-3.6-2.9-8.9-4.3-15.7-4.3h-33.4V1098.3z"/>
		<path d="M750.5,1178.6c-8.6,0-16.3-1.8-22.9-5.5c-6.7-3.7-11.9-8.9-15.6-15.7c-3.7-6.7-5.6-14.7-5.6-23.8c0-9.1,1.9-17.1,5.6-23.8
			c3.7-6.7,8.9-12,15.6-15.7c6.7-3.7,14.3-5.5,22.9-5.5c8.8,0,16.5,1.9,23.1,5.5c6.6,3.7,11.8,8.9,15.6,15.7
			c3.8,6.7,5.7,14.7,5.7,23.8c0,9.1-1.9,17.1-5.7,23.8c-3.8,6.7-9,12-15.6,15.7C766.9,1176.8,759.2,1178.6,750.5,1178.6z
			 M750.5,1169.6c7.4,0,13.7-1.4,18.8-4.1s9.1-6.8,11.8-12.1c2.7-5.4,4-11.9,4-19.8s-1.4-14.5-4-19.8c-2.7-5.3-6.6-9.3-11.8-12.1
			c-5.1-2.7-11.4-4.1-18.8-4.1c-7.3,0-13.5,1.4-18.7,4.1c-5.1,2.7-9,6.8-11.7,12.1c-2.7,5.3-4,11.9-4,19.8c0,7.8,1.3,14.4,4,19.8
			s6.5,9.4,11.7,12.1C736.9,1168.3,743.1,1169.6,750.5,1169.6z"/>
		<path d="M909.6,1177.3h-47.3v-87.5h46c5.3,0,9.9,0.8,13.8,2.5c3.9,1.7,6.9,4.1,9,7.4s3.2,7.2,3.2,11.8c0,5-1.4,9.2-4.3,12.7
			s-7.3,5.8-13.3,6.7v0.8c6.8,1.1,11.9,3.6,15.3,7.4c3.4,3.8,5.1,8.5,5.1,14c0,5-1.1,9.4-3.4,13c-2.3,3.6-5.4,6.4-9.5,8.3
			C920,1176.4,915.2,1177.3,909.6,1177.3z M871.6,1098.3v29.6h35.1c6,0,10.6-1.2,13.6-3.7c3.1-2.4,4.6-6.1,4.6-11.1
			c0-5.1-1.4-8.9-4.3-11.3c-2.9-2.4-7.3-3.6-13.2-3.6L871.6,1098.3L871.6,1098.3z M871.6,1135.9v32.9h37.2c6.2,0,10.9-1.3,14-4
			c3.2-2.7,4.8-6.9,4.8-12.5c0-5.7-1.6-9.8-4.8-12.4s-7.9-3.9-14-3.9L871.6,1135.9L871.6,1135.9z"/>
		<path d="M1045.2,1178.6c-8.6,0-16.3-1.8-22.9-5.5c-6.7-3.7-11.9-8.9-15.6-15.7c-3.7-6.7-5.6-14.7-5.6-23.8
			c0-9.1,1.9-17.1,5.6-23.8c3.7-6.7,8.9-12,15.6-15.7s14.3-5.5,22.9-5.5c8.8,0,16.5,1.9,23.1,5.5c6.6,3.7,11.8,8.9,15.6,15.7
			c3.8,6.7,5.7,14.7,5.7,23.8c0,9.1-1.9,17.1-5.7,23.8c-3.8,6.7-9,12-15.6,15.7C1061.7,1176.8,1053.9,1178.6,1045.2,1178.6z
			 M1045.2,1169.6c7.4,0,13.7-1.4,18.8-4.1c5.1-2.7,9.1-6.8,11.8-12.1c2.7-5.4,4-11.9,4-19.8s-1.4-14.5-4-19.8
			c-2.7-5.3-6.6-9.3-11.8-12.1c-5.1-2.7-11.4-4.1-18.8-4.1c-7.3,0-13.5,1.4-18.7,4.1c-5.1,2.7-9,6.8-11.7,12.1
			c-2.7,5.3-4,11.9-4,19.8c0,7.8,1.3,14.4,4,19.8s6.5,9.4,11.7,12.1C1031.6,1168.3,1037.8,1169.6,1045.2,1169.6z"/>
		<path d="M1232.9,1098.3h-81.2v-8.5h81.2V1098.3z M1197,1177.3h-9.3v-87.5h9.3V1177.3z"/>
		<path d="M1307.6,1177.3h-9.3v-87.5h9.3V1177.3z"/>
		<path d="M1419.6,1178.6c-8.5,0-16.1-1.8-22.7-5.5s-11.7-8.9-15.4-15.7c-3.7-6.7-5.5-14.7-5.5-23.8c0-9.1,1.8-17.1,5.5-23.8
			c3.7-6.7,8.8-12,15.4-15.7s14.1-5.5,22.7-5.5c7.6,0,14.4,1.3,20.4,4s10.7,6.4,14.2,11.2c3.4,4.8,5.2,10.6,5.2,17.3v1.6h-10.1v-1.6
			c0-7.5-2.5-13.3-7.6-17.4c-5-4.1-12.4-6.1-21.9-6.1c-7.2,0-13.4,1.4-18.5,4.1s-8.9,6.8-11.6,12.1c-2.6,5.3-3.9,11.9-3.9,19.8
			c0,7.8,1.3,14.4,3.9,19.8s6.5,9.4,11.6,12.1s11.2,4.1,18.5,4.1c9.6,0,16.9-2,21.9-6.1s7.6-9.9,7.6-17.4v-1.6h10.1v1.6
			c0,6.6-1.7,12.4-5.2,17.2c-3.4,4.9-8.2,8.6-14.2,11.3S1427.2,1178.6,1419.6,1178.6z"/>
		<path d="M1561.8,1178.6c-8.5,0-15.6-1.3-21.2-3.8s-9.8-6-12.5-10.4s-4-9.3-4-14.8v-0.8h9.4v1.7c0,4.2,0.9,7.7,2.8,10.6
			s4.9,5,9.1,6.5s9.7,2.2,16.5,2.2c5.9,0,10.7-0.5,14.4-1.6c3.7-1,6.5-2.7,8.3-4.9s2.7-5,2.7-8.3c0-4.9-1.5-8.4-4.5-10.6
			s-7.7-4-14.2-5.3l-18.5-3.5c-4.7-1-9-2.3-12.9-4s-7-4.2-9.3-7.2c-2.3-3.1-3.5-7.1-3.5-11.9c0-3,0.7-5.9,2-8.7
			c1.3-2.8,3.4-5.4,6.2-7.7c2.8-2.3,6.4-4.1,10.9-5.5c4.5-1.3,9.9-2,16.1-2c8.3,0,15,1.3,20.2,3.9s9.1,6.1,11.6,10.5
			s3.8,9.2,3.8,14.6v0.8h-9.4v-1.6c0-4.2-0.9-7.7-2.7-10.6c-1.8-2.9-4.7-5.1-8.6-6.6s-9.1-2.2-15.5-2.2c-5.7,0-10.5,0.5-14.2,1.6
			s-6.5,2.7-8.3,4.8c-1.8,2.1-2.7,4.8-2.7,8s0.7,5.8,2,7.8s3.4,3.6,6.1,4.7s6.2,2.2,10.5,3.1l18.4,3.7c5.2,1,9.7,2.4,13.6,4.3
			c3.8,1.9,6.8,4.4,8.9,7.5s3.2,6.9,3.2,11.4c0,4.1-1.2,8-3.7,11.8c-2.4,3.7-6.2,6.8-11.4,9.1
			C1576.5,1177.5,1569.9,1178.6,1561.8,1178.6z"/>
	</g>
</g>
</svg>
